<svg width="20" height="20" viewBox="0 0 20 20" fill="none" xmlns="http://www.w3.org/2000/svg">
<path d="M18 9C18.5523 9 19 9.44772 19 10C19 10.5523 18.5523 11 18 11V10V9ZM1.29289 10.7071C0.902369 10.3166 0.902369 9.68342 1.29289 9.29289L7.65685 2.92893C8.04738 2.53841 8.68054 2.53841 9.07107 2.92893C9.46159 3.31946 9.46159 3.95262 9.07107 4.34315L3.41421 10L9.07107 15.6569C9.46159 16.0474 9.46159 16.6805 9.07107 17.0711C8.68054 17.4616 8.04738 17.4616 7.65685 17.0711L1.29289 10.7071ZM18 10V11H2V10V9H18V10Z" fill="#2B2B2B"/>
</svg>
