<svg width="24" height="24" viewBox="0 0 24 24" fill="none" xmlns="http://www.w3.org/2000/svg">
<g clip-path="url(#clip0_207_10)">
<path d="M12 3.80078C14.6719 3.80078 14.9883 3.8125 16.0391 3.85937C17.0156 3.90234 17.543 4.06641 17.8945 4.20313C18.3594 4.38281 18.6953 4.60156 19.043 4.94922C19.3945 5.30078 19.6094 5.63281 19.7891 6.09766C19.9258 6.44922 20.0898 6.98047 20.1328 7.95313C20.1797 9.00781 20.1914 9.32422 20.1914 11.9922C20.1914 14.6641 20.1797 14.9805 20.1328 16.0313C20.0898 17.0078 19.9258 17.5352 19.7891 17.8867C19.6094 18.3516 19.3906 18.6875 19.043 19.0352C18.6914 19.3867 18.3594 19.6016 17.8945 19.7813C17.543 19.918 17.0117 20.082 16.0391 20.125C14.9844 20.1719 14.668 20.1836 12 20.1836C9.32813 20.1836 9.01172 20.1719 7.96094 20.125C6.98438 20.082 6.45703 19.918 6.10547 19.7813C5.64063 19.6016 5.30469 19.3828 4.95703 19.0352C4.60547 18.6836 4.39063 18.3516 4.21094 17.8867C4.07422 17.5352 3.91016 17.0039 3.86719 16.0313C3.82031 14.9766 3.80859 14.6602 3.80859 11.9922C3.80859 9.32031 3.82031 9.00391 3.86719 7.95313C3.91016 6.97656 4.07422 6.44922 4.21094 6.09766C4.39063 5.63281 4.60938 5.29688 4.95703 4.94922C5.30859 4.59766 5.64063 4.38281 6.10547 4.20313C6.45703 4.06641 6.98828 3.90234 7.96094 3.85937C9.01172 3.8125 9.32813 3.80078 12 3.80078ZM12 2C9.28516 2 8.94531 2.01172 7.87891 2.05859C6.81641 2.10547 6.08594 2.27734 5.45313 2.52344C4.79297 2.78125 4.23438 3.12109 3.67969 3.67969C3.12109 4.23438 2.78125 4.79297 2.52344 5.44922C2.27734 6.08594 2.10547 6.8125 2.05859 7.875C2.01172 8.94531 2 9.28516 2 12C2 14.7148 2.01172 15.0547 2.05859 16.1211C2.10547 17.1836 2.27734 17.9141 2.52344 18.5469C2.78125 19.207 3.12109 19.7656 3.67969 20.3203C4.23438 20.875 4.79297 21.2188 5.44922 21.4727C6.08594 21.7188 6.8125 21.8906 7.875 21.9375C8.94141 21.9844 9.28125 21.9961 11.9961 21.9961C14.7109 21.9961 15.0508 21.9844 16.1172 21.9375C17.1797 21.8906 17.9102 21.7188 18.543 21.4727C19.1992 21.2188 19.7578 20.875 20.3125 20.3203C20.8672 19.7656 21.2109 19.207 21.4648 18.5508C21.7109 17.9141 21.8828 17.1875 21.9297 16.125C21.9766 15.0586 21.9883 14.7188 21.9883 12.0039C21.9883 9.28906 21.9766 8.94922 21.9297 7.88281C21.8828 6.82031 21.7109 6.08984 21.4648 5.45703C21.2188 4.79297 20.8789 4.23438 20.3203 3.67969C19.7656 3.125 19.207 2.78125 18.5508 2.52734C17.9141 2.28125 17.1875 2.10938 16.125 2.0625C15.0547 2.01172 14.7148 2 12 2Z" fill="white"/>
<path d="M12 6.86328C9.16406 6.86328 6.86328 9.16406 6.86328 12C6.86328 14.8359 9.16406 17.1367 12 17.1367C14.8359 17.1367 17.1367 14.8359 17.1367 12C17.1367 9.16406 14.8359 6.86328 12 6.86328ZM12 15.332C10.1602 15.332 8.66797 13.8398 8.66797 12C8.66797 10.1602 10.1602 8.66797 12 8.66797C13.8398 8.66797 15.332 10.1602 15.332 12C15.332 13.8398 13.8398 15.332 12 15.332Z" fill="white"/>
<path d="M18.5391 6.66016C18.5391 7.32422 18 7.85938 17.3398 7.85938C16.6758 7.85938 16.1406 7.32031 16.1406 6.66016C16.1406 5.99609 16.6797 5.46094 17.3398 5.46094C18 5.46094 18.5391 6 18.5391 6.66016Z" fill="white"/>
</g>
<defs>
<clipPath id="clip0_207_10">
<rect width="20" height="20" fill="white" transform="translate(2 2)"/>
</clipPath>
</defs>
</svg>
