<svg width="56" height="56" viewBox="0 0 56 56" fill="none" xmlns="http://www.w3.org/2000/svg">
<path d="M49.1867 20.0201V35.98C49.1867 38.5933 47.7867 41.0201 45.5234 42.3501L31.6634 50.3534C29.4 51.6601 26.6001 51.6601 24.3134 50.3534L10.4534 42.3501C8.19006 41.0434 6.79004 38.6167 6.79004 35.98V20.0201C6.79004 17.4067 8.19006 14.98 10.4534 13.65L24.3134 5.64666C26.5767 4.33999 29.3767 4.33999 31.6634 5.64666L45.5234 13.65C47.7867 14.98 49.1867 17.3834 49.1867 20.0201Z" stroke="white" stroke-width="1.5" stroke-linecap="round" stroke-linejoin="round"/>
<path d="M22.75 28.0001V25.2C22.75 21.6067 25.2934 20.1368 28.3967 21.9334L30.8233 23.3334L33.25 24.7333C36.3533 26.53 36.3533 29.4701 33.25 31.2668L30.8233 32.6667L28.3967 34.0667C25.2934 35.8633 22.75 34.3934 22.75 30.8001V28.0001Z" stroke="white" stroke-width="1.5" stroke-miterlimit="10" stroke-linecap="round" stroke-linejoin="round"/>
</svg>
