<svg width="24" height="24" viewBox="0 0 24 24" fill="none" xmlns="http://www.w3.org/2000/svg">
<path d="M2 22L3.40583 16.8641C2.53833 15.3608 2.0825 13.6566 2.08333 11.9091C2.08583 6.44582 6.53166 2 11.9941 2C14.645 2.00083 17.1333 3.03333 19.005 4.90666C20.8758 6.77999 21.9058 9.26998 21.905 11.9183C21.9025 17.3825 17.4566 21.8283 11.9941 21.8283C10.3358 21.8275 8.70165 21.4116 7.25415 20.6216L2 22ZM7.49749 18.8275C8.89415 19.6566 10.2275 20.1533 11.9908 20.1541C16.5308 20.1541 20.2291 16.4591 20.2316 11.9166C20.2333 7.36499 16.5525 3.675 11.9975 3.67333C7.45415 3.67333 3.75833 7.36832 3.75666 11.91C3.75583 13.7641 4.29916 15.1525 5.21166 16.605L4.37916 19.645L7.49749 18.8275ZM16.9866 14.2741C16.925 14.1708 16.76 14.1091 16.5116 13.985C16.2641 13.8608 15.0466 13.2616 14.8191 13.1791C14.5925 13.0966 14.4275 13.055 14.2616 13.3033C14.0966 13.5508 13.6216 14.1091 13.4775 14.2741C13.3333 14.4391 13.1883 14.46 12.9408 14.3358C12.6933 14.2116 11.895 13.9508 10.9491 13.1066C10.2133 12.45 9.71582 11.6391 9.57165 11.3908C9.42748 11.1433 9.55665 11.0091 9.67998 10.8858C9.79165 10.775 9.92748 10.5966 10.0516 10.4516C10.1775 10.3083 10.2183 10.205 10.3016 10.0391C10.3841 9.87415 10.3433 9.72915 10.2808 9.60498C10.2183 9.48165 9.72332 8.26249 9.51748 7.76665C9.31582 7.28415 9.11165 7.34915 8.95998 7.34165L8.48499 7.33332C8.31999 7.33332 8.05165 7.39499 7.82499 7.64332C7.59832 7.89165 6.95832 8.48999 6.95832 9.70915C6.95832 10.9283 7.84582 12.1058 7.96915 12.2708C8.09332 12.4358 9.71498 14.9375 12.1991 16.01C12.79 16.265 13.2516 16.4175 13.6108 16.5316C14.2041 16.72 14.7441 16.6933 15.1708 16.63C15.6466 16.5591 16.6358 16.0308 16.8425 15.4525C17.0491 14.8733 17.0491 14.3775 16.9866 14.2741Z" fill="white"/>
</svg>
